# xmcd CD database file
#
# Track frame offsets:
#	150
#	18720
#	38427
#	54982
#	70120
#	86977
#	100712
#	115860
#	129035
#	145187
#	174947
#
# Disc length: 2746 seconds
#
# Revision: 0
# Processed by: cddbd v1.5.1PL0 Copyright (c) Steve Scherf et al.
# Submitted via: CDex 1.51
#
DISCID=840ab80b
DTITLE=Cledus T. Judd - Bipolar and Proud
DYEAR=2004
DGENRE=Country
TTITLE0=I Love NASCAR
TTITLE1=Hell No
TTITLE2=One Jack Off
TTITLE3=Paycheck Woman
TTITLE4=Bale Me a Country Ham
TTITLE5=I'm Going Ugly Early Tonight
TTITLE6=__ Is Funny
TTITLE7=Starkissed
TTITLE8=Martie, Emily and Natalie
TTITLE9=Funny Man
TTITLE10=Data
EXTD=YEAR: 2004
EXTT0=
EXTT1=
EXTT2=
EXTT3=
EXTT4=
EXTT5=
EXTT6=
EXTT7=
EXTT8=
EXTT9=
EXTT10=
PLAYORDER=
